<svg xmlns="http://www.w3.org/2000/svg" viewBox="0 0 48 48" fill="none">
  <defs>
    <linearGradient id="grad1" x1="0%" y1="0%" x2="100%" y2="100%">
      <stop offset="0%" style="stop-color:#7c3aed;stop-opacity:1" />
      <stop offset="100%" style="stop-color:#06b6d4;stop-opacity:1" />
    </linearGradient>
    <filter id="glow">
      <feGaussianBlur stdDeviation="1.5" result="coloredBlur"/>
      <feMerge>
        <feMergeNode in="coloredBlur"/>
        <feMergeNode in="SourceGraphic"/>
      </feMerge>
    </filter>
  </defs>
  <!-- Chat bubble -->
  <path d="M6 8C6 5.79 7.79 4 10 4H38C40.21 4 42 5.79 42 8V30C42 32.21 40.21 34 38 34H26L18 44V34H10C7.79 34 6 32.21 6 30V8Z"
        fill="url(#grad1)" opacity="0.15"/>
  <path d="M6 8C6 5.79 7.79 4 10 4H38C40.21 4 42 5.79 42 8V30C42 32.21 40.21 34 38 34H26L18 44V34H10C7.79 34 6 32.21 6 30V8Z"
        stroke="url(#grad1)" stroke-width="1.5" fill="none" filter="url(#glow)"/>
  <!-- Neural dots -->
  <circle cx="16" cy="19" r="2.5" fill="url(#grad1)" filter="url(#glow)"/>
  <circle cx="24" cy="19" r="2.5" fill="url(#grad1)" filter="url(#glow)"/>
  <circle cx="32" cy="19" r="2.5" fill="url(#grad1)" filter="url(#glow)"/>
  <!-- Connecting lines -->
  <line x1="18.5" y1="19" x2="21.5" y2="19" stroke="url(#grad1)" stroke-width="1" opacity="0.6"/>
  <line x1="26.5" y1="19" x2="29.5" y2="19" stroke="url(#grad1)" stroke-width="1" opacity="0.6"/>
  <!-- Spark lines -->
  <line x1="16" y1="13" x2="16" y2="16" stroke="url(#grad1)" stroke-width="1" opacity="0.5"/>
  <line x1="24" y1="12" x2="24" y2="16" stroke="url(#grad1)" stroke-width="1.5" opacity="0.7"/>
  <line x1="32" y1="13" x2="32" y2="16" stroke="url(#grad1)" stroke-width="1" opacity="0.5"/>
</svg>
